<svg width="16" height="17" viewBox="0 0 16 17" fill="none" xmlns="http://www.w3.org/2000/svg">
<path d="M14.3553 4.8035C14.3655 4.94563 14.3655 5.08778 14.3655 5.22991C14.3655 9.56491 11.066 14.5598 5.03553 14.5598C3.17766 14.5598 1.45178 14.0218 0 13.0878C0.263969 13.1182 0.51775 13.1284 0.791875 13.1284C2.32484 13.1284 3.73603 12.6106 4.86294 11.7274C3.42131 11.6969 2.21319 10.7528 1.79694 9.45325C2 9.48369 2.20303 9.504 2.41625 9.504C2.71066 9.504 3.00509 9.46338 3.27919 9.39235C1.77666 9.08775 0.649719 7.76797 0.649719 6.17407V6.13347C1.08625 6.37713 1.59391 6.52941 2.13194 6.54969C1.24869 5.96085 0.670031 4.95579 0.670031 3.81872C0.670031 3.2096 0.832438 2.65122 1.11672 2.16391C2.73094 4.15375 5.15734 5.45322 7.87813 5.59538C7.82738 5.35172 7.79691 5.09794 7.79691 4.84413C7.79691 3.037 9.25884 1.56494 11.0761 1.56494C12.0202 1.56494 12.873 1.96088 13.472 2.60047C14.2131 2.45835 14.9238 2.18422 15.5533 1.8086C15.3096 2.57004 14.7918 3.20963 14.1116 3.61569C14.7715 3.54466 15.4111 3.36188 15.9999 3.1081C15.5533 3.75782 14.9949 4.33647 14.3553 4.8035Z" fill="black"/>
</svg>
