<svg width="16" height="17" viewBox="0 0 16 17" fill="none" xmlns="http://www.w3.org/2000/svg">
<path d="M8.00303 4.46885C6.01553 4.46885 4.4124 6.07197 4.4124 8.05947C4.4124 10.047 6.01553 11.6501 8.00303 11.6501C9.99053 11.6501 11.5937 10.047 11.5937 8.05947C11.5937 6.07197 9.99053 4.46885 8.00303 4.46885ZM8.00303 10.3938C6.71865 10.3938 5.66865 9.34697 5.66865 8.05947C5.66865 6.77197 6.71553 5.7251 8.00303 5.7251C9.29053 5.7251 10.3374 6.77197 10.3374 8.05947C10.3374 9.34697 9.2874 10.3938 8.00303 10.3938ZM12.578 4.32197C12.578 4.7876 12.203 5.15947 11.7405 5.15947C11.2749 5.15947 10.903 4.78447 10.903 4.32197C10.903 3.85947 11.278 3.48447 11.7405 3.48447C12.203 3.48447 12.578 3.85947 12.578 4.32197ZM14.9562 5.17197C14.903 4.0501 14.6468 3.05635 13.8249 2.2376C13.0062 1.41885 12.0124 1.1626 10.8905 1.10635C9.73428 1.04072 6.26865 1.04072 5.1124 1.10635C3.99365 1.15947 2.9999 1.41572 2.17803 2.23447C1.35615 3.05322 1.10303 4.04697 1.04678 5.16885C0.981152 6.3251 0.981152 9.79072 1.04678 10.947C1.0999 12.0688 1.35615 13.0626 2.17803 13.8813C2.9999 14.7001 3.99053 14.9563 5.1124 15.0126C6.26865 15.0782 9.73428 15.0782 10.8905 15.0126C12.0124 14.9595 13.0062 14.7032 13.8249 13.8813C14.6437 13.0626 14.8999 12.0688 14.9562 10.947C15.0218 9.79072 15.0218 6.32822 14.9562 5.17197ZM13.4624 12.1876C13.2187 12.8001 12.7468 13.272 12.1312 13.5188C11.2093 13.8845 9.02178 13.8001 8.00303 13.8001C6.98428 13.8001 4.79365 13.8813 3.8749 13.5188C3.2624 13.2751 2.79053 12.8032 2.54365 12.1876C2.17803 11.2657 2.2624 9.07822 2.2624 8.05947C2.2624 7.04072 2.18115 4.8501 2.54365 3.93135C2.7874 3.31885 3.25928 2.84697 3.8749 2.6001C4.79678 2.23447 6.98428 2.31885 8.00303 2.31885C9.02178 2.31885 11.2124 2.2376 12.1312 2.6001C12.7437 2.84385 13.2155 3.31572 13.4624 3.93135C13.828 4.85322 13.7437 7.04072 13.7437 8.05947C13.7437 9.07822 13.828 11.2688 13.4624 12.1876Z" fill="black"/>
</svg>
