<svg width="16" height="17" viewBox="0 0 16 17" fill="none" xmlns="http://www.w3.org/2000/svg">
<path d="M15.2682 4.39822C15.0937 3.74128 14.5797 3.22389 13.927 3.0483C12.7439 2.72925 7.99999 2.72925 7.99999 2.72925C7.99999 2.72925 3.2561 2.72925 2.07302 3.0483C1.42032 3.22391 0.906267 3.74128 0.731795 4.39822C0.414795 5.58897 0.414795 8.07336 0.414795 8.07336C0.414795 8.07336 0.414795 10.5577 0.731795 11.7485C0.906267 12.4054 1.42032 12.9013 2.07302 13.0769C3.2561 13.3959 7.99999 13.3959 7.99999 13.3959C7.99999 13.3959 12.7439 13.3959 13.927 13.0769C14.5797 12.9013 15.0937 12.4054 15.2682 11.7485C15.5852 10.5577 15.5852 8.07336 15.5852 8.07336C15.5852 8.07336 15.5852 5.58897 15.2682 4.39822ZM6.44846 10.329V5.81772L10.4134 8.07342L6.44846 10.329Z" fill="black"/>
</svg>
